# xmcd
# 
# Track frame offsets:
#     150
#     37456
#     70902
#     82292
#     106010
#     126415
#     157449
#     183384
# 
# Disc length: 2809
# 
# Revision: 1
# Processed by: cddbd v1.5.2PL0 Copyright (c) Steve Scherf et al.
# Submitted via: BonkEnc v1.0.6
# 
DISCID=7b0af708
DTITLE=Victor Feldman - Your Smile
DYEAR=1973
DGENRE=Jazz
TTITLE0=Your Smile
TTITLE1=Rockavibabe
TTITLE2=Quietly
TTITLE3=I Love Lucy Theme
TTITLE4=Brazilian Fire
TTITLE5=Minor Catastrophe
TTITLE6=Crazy Chicken
TTITLE7=Seven Steps To Heaven
EXTD=
EXTT0=
EXTT1=
EXTT2=
EXTT3=
EXTT4=
EXTT5=
EXTT6=
EXTT7=
PLAYORDER=
